<?xml version="1.0" standalone="no"?>
<!DOCTYPE svg PUBLIC "-//W3C//DTD SVG 20010904//EN"
 "http://www.w3.org/TR/2001/REC-SVG-20010904/DTD/svg10.dtd">
<svg version="1.0" xmlns="http://www.w3.org/2000/svg"
 width="365.000000pt" height="176.000000pt" viewBox="0 0 365.000000 176.000000"
 preserveAspectRatio="xMidYMid meet">

<g transform="translate(0.000000,176.000000) scale(0.100000,-0.100000)"
 stroke="none">
<path d="M2714 1683 c-16 -17 -16 -18 -1 -21 22 -4 23 -57 2 -78 -12 -13 -24
-12 -97 8 -62 16 -112 22 -198 22 -120 1 -116 0 -187 51 -18 13 -36 -14 -22
-32 6 -7 7 -18 3 -24 -4 -7 -3 -9 3 -6 6 4 20 -18 33 -53 13 -34 25 -59 27
-56 2 2 -7 31 -21 65 -13 33 -23 61 -22 61 2 0 25 -10 52 -21 42 -19 59 -21
141 -15 76 5 107 3 178 -15 116 -29 115 -26 115 -280 0 -172 -2 -198 -15 -193
-13 5 -14 -5 -9 -67 4 -42 2 -90 -4 -111 -6 -21 -6 -40 -2 -43 5 -3 7 -12 3
-20 -3 -9 0 -21 5 -28 7 -8 7 -18 2 -27 -6 -8 -10 -33 -10 -55 0 -22 4 -47 10
-55 5 -9 5 -19 -2 -27 -5 -7 -8 -20 -4 -28 3 -8 1 -15 -4 -15 -6 0 -7 -32 -3
-78 10 -131 0 -166 -63 -227 -30 -29 -54 -58 -54 -64 0 -8 59 -11 185 -11 126
0 185 3 185 11 0 6 -26 35 -57 64 l-58 54 0 125 c0 69 -3 126 -7 126 -7 0 -9
16 -7 58 1 31 1 118 0 140 0 9 0 77 2 149 2 113 0 132 -13 130 -13 -2 -15 26
-18 192 -3 246 -9 236 126 207 72 -16 110 -30 147 -55 61 -43 107 -60 164 -61
30 0 49 -6 60 -19 16 -18 17 -18 18 20 l2 39 -59 -7 c-68 -7 -101 4 -171 53
-35 24 -71 37 -149 53 -57 12 -104 21 -105 21 -2 0 -6 11 -9 25 -4 14 -11 25
-16 25 -6 0 -10 16 -10 35 0 26 4 35 17 35 14 0 14 2 -2 20 -22 25 -58 26 -81
3z m-479 -33 c3 -5 1 -10 -4 -10 -6 0 -11 5 -11 10 0 6 2 10 4 10 3 0 8 -4 11
-10z m545 -85 c20 -25 8 -50 -25 -50 -21 0 -31 5 -33 18 -4 21 14 47 33 47 7
0 18 -7 25 -15z m510 -165 c0 -5 -4 -10 -10 -10 -5 0 -10 5 -10 10 0 6 5 10
10 10 6 0 10 -4 10 -10z"/>
<path d="M2196 1575 c-9 -26 -7 -32 5 -12 6 10 9 21 6 23 -2 3 -7 -2 -11 -11z"/>
<path d="M2176 1525 c-9 -26 -7 -32 5 -12 6 10 9 21 6 23 -2 3 -7 -2 -11 -11z"/>
<path d="M2156 1475 c-9 -26 -7 -32 5 -12 6 10 9 21 6 23 -2 3 -7 -2 -11 -11z"/>
<path d="M2280 1475 c0 -5 5 -17 10 -25 5 -8 10 -10 10 -5 0 6 -5 17 -10 25
-5 8 -10 11 -10 5z"/>
<path d="M2136 1425 c-9 -26 -7 -32 5 -12 6 10 9 21 6 23 -2 3 -7 -2 -11 -11z"/>
<path d="M2304 1415 c23 -66 60 -155 63 -151 4 4 -56 158 -64 166 -4 3 -3 -4
1 -15z"/>
<path d="M2116 1375 c-9 -26 -7 -32 5 -12 6 10 9 21 6 23 -2 3 -7 -2 -11 -11z"/>
<path d="M3187 1158 c-42 -105 -75 -193 -73 -195 2 -2 38 82 80 188 42 105 75
193 73 195 -2 2 -38 -83 -80 -188z"/>
<path d="M2096 1325 c-9 -26 -7 -32 5 -12 6 10 9 21 6 23 -2 3 -7 -2 -11 -11z"/>
<path d="M3300 1325 c0 -5 5 -17 10 -25 5 -8 10 -10 10 -5 0 6 -5 17 -10 25
-5 8 -10 11 -10 5z"/>
<path d="M2076 1275 c-9 -26 -7 -32 5 -12 6 10 9 21 6 23 -2 3 -7 -2 -11 -11z"/>
<path d="M3326 1260 c4 -14 15 -43 25 -65 11 -22 16 -29 13 -15 -4 14 -15 43
-25 65 -11 22 -16 29 -13 15z"/>
<path d="M2370 1245 c0 -5 5 -17 10 -25 5 -8 10 -10 10 -5 0 6 -5 17 -10 25
-5 8 -10 11 -10 5z"/>
<path d="M2056 1225 c-9 -26 -7 -32 5 -12 6 10 9 21 6 23 -2 3 -7 -2 -11 -11z"/>
<path d="M2396 1180 c4 -14 15 -43 25 -65 11 -22 16 -29 13 -15 -4 14 -15 43
-25 65 -11 22 -16 29 -13 15z"/>
<path d="M1980 1035 c-34 -85 -66 -158 -71 -161 -53 -32 179 -133 309 -134 94
0 305 70 319 107 3 7 -2 20 -11 28 -15 15 -16 15 -16 -4 0 -21 -3 -21 -290
-21 -273 0 -290 1 -290 18 0 10 27 85 60 167 33 82 58 150 56 152 -2 2 -32
-66 -66 -152z"/>
<path d="M3370 1145 c0 -5 5 -17 10 -25 5 -8 10 -10 10 -5 0 6 -5 17 -10 25
-5 8 -10 11 -10 5z"/>
<path d="M3390 1095 c0 -5 5 -17 10 -25 5 -8 10 -10 10 -5 0 6 -5 17 -10 25
-5 8 -10 11 -10 5z"/>
<path d="M2440 1065 c0 -5 5 -17 10 -25 5 -8 10 -10 10 -5 0 6 -5 17 -10 25
-5 8 -10 11 -10 5z"/>
<path d="M3416 1030 c3 -14 11 -32 16 -40 6 -10 7 -7 2 10 -3 14 -11 32 -16
40 -6 10 -7 7 -2 -10z"/>
<path d="M2460 1015 c0 -5 5 -17 10 -25 5 -8 10 -10 10 -5 0 6 -5 17 -10 25
-5 8 -10 11 -10 5z"/>
<path d="M2486 950 c3 -14 11 -32 16 -40 6 -10 7 -7 2 10 -3 14 -11 32 -16 40
-6 10 -7 7 -2 -10z"/>
<path d="M3440 965 c0 -5 5 -17 10 -25 5 -8 10 -10 10 -5 0 6 -5 17 -10 25 -5
8 -10 11 -10 5z"/>
<path d="M3096 935 c-9 -26 -7 -32 5 -12 6 10 9 21 6 23 -2 3 -7 -2 -11 -11z"/>
<path d="M3460 915 c0 -5 5 -17 10 -25 5 -8 10 -10 10 -5 0 6 -5 17 -10 25 -5
8 -10 11 -10 5z"/>
<path d="M3076 885 c-9 -26 -7 -32 5 -12 6 10 9 21 6 23 -2 3 -7 -2 -11 -11z"/>
<path d="M3486 850 c4 -14 15 -43 25 -65 11 -22 16 -29 13 -15 -4 14 -15 43
-25 65 -11 22 -16 29 -13 15z"/>
<path d="M3056 835 c-9 -26 -7 -32 5 -12 6 10 9 21 6 23 -2 3 -7 -2 -11 -11z"/>
<path d="M3036 785 c-9 -26 -7 -32 5 -12 6 10 9 21 6 23 -2 3 -7 -2 -11 -11z"/>
<path d="M3016 735 c-9 -26 -7 -32 5 -12 6 10 9 21 6 23 -2 3 -7 -2 -11 -11z"/>
<path d="M3530 735 c0 -5 5 -17 10 -25 5 -8 10 -10 10 -5 0 6 -5 17 -10 25 -5
8 -10 11 -10 5z"/>
<path d="M2996 685 c-9 -26 -7 -32 5 -12 6 10 9 21 6 23 -2 3 -7 -2 -11 -11z"/>
<path d="M3556 675 c3 -11 8 -32 11 -47 l6 -28 -292 0 c-302 0 -297 -1 -291
40 1 10 -3 9 -14 -5 -8 -11 -16 -25 -16 -32 0 -15 129 -77 195 -93 65 -15 186
-15 250 1 65 16 166 61 184 82 11 14 11 20 0 33 -8 10 -20 29 -27 43 -7 14
-10 17 -6 6z"/>
<path d="M2196 528 c-6 -4 -54 -14 -106 -23 -52 -9 -104 -19 -115 -22 -17 -5
-18 -4 -6 11 18 21 13 21 -66 -10 -63 -25 -110 -54 -88 -54 6 0 78 13 160 30
83 16 158 30 167 30 12 0 -6 -29 -61 -97 -112 -141 -191 -257 -191 -283 0 -29
5 -25 68 41 51 54 72 90 32 54 -11 -10 -20 -15 -20 -11 0 12 144 196 203 259
l53 57 110 -1 c103 -1 107 -1 77 -15 -40 -17 -43 -27 -5 -18 42 10 56 24 40
40 -14 14 -230 24 -252 12z"/>
<path d="M1020 514 c-75 -50 -208 -199 -265 -297 -15 -26 -40 -54 -56 -63 -36
-18 -37 -5 -4 34 31 38 31 48 -1 65 -23 12 -24 15 -10 26 17 14 22 41 7 41
-15 0 -63 -50 -58 -63 2 -6 16 -13 30 -15 15 -2 27 -5 27 -8 0 -2 -12 -22 -26
-44 -14 -21 -23 -44 -19 -49 9 -15 38 -14 60 3 17 12 21 12 33 -5 22 -32 58
-23 110 28 29 30 46 55 44 66 -5 24 -22 21 -22 -5 0 -23 -72 -98 -95 -98 -8 0
-15 8 -15 18 1 38 28 73 85 111 86 56 181 146 211 197 38 65 19 94 -36 58z
m40 -23 c0 -17 -69 -97 -121 -142 -73 -61 -129 -103 -129 -95 0 12 114 143
168 193 53 49 82 65 82 44z"/>
<path d="M1714 498 c-51 -35 -159 -168 -221 -275 -42 -71 -65 -83 -56 -29 8
50 -9 50 -57 1 -24 -25 -50 -45 -57 -45 -17 0 -17 4 7 50 25 49 27 79 4 59 -8
-7 -21 -24 -29 -39 -14 -27 -79 -69 -91 -58 -3 4 9 25 27 48 20 25 29 44 23
50 -12 12 -26 2 -52 -41 -42 -69 -17 -105 41 -59 30 24 38 25 31 5 -6 -15 11
-45 26 -45 4 0 29 19 55 42 39 34 46 38 40 20 -9 -32 12 -57 33 -40 13 11 15
10 9 -4 -11 -32 8 -19 27 17 15 27 25 35 47 35 20 0 32 -9 48 -35 22 -38 37
-43 67 -20 18 15 18 15 -7 9 -21 -4 -31 0 -49 23 l-22 28 45 18 c51 21 62 37
42 63 -13 18 -15 18 -59 -3 -45 -22 -46 -22 -34 -2 7 11 44 36 81 55 108 55
182 141 163 189 -8 23 -29 18 -82 -17z m76 -3 c0 -40 -110 -141 -183 -168 -16
-6 -15 -2 5 25 40 58 137 148 158 148 11 0 20 -2 20 -5z m-160 -245 c0 -14
-30 -27 -75 -35 l-40 -6 45 25 c48 27 70 32 70 16z"/>
<path d="M201 460 c-78 -37 -123 -69 -116 -81 11 -17 32 -9 69 25 36 35 136
79 165 74 29 -6 22 -42 -21 -108 -42 -63 -45 -65 -107 -81 -35 -9 -60 -19 -54
-22 6 -4 25 -2 44 3 19 6 40 10 47 10 7 0 -27 -53 -77 -117 -55 -73 -86 -122
-80 -127 9 -10 79 49 79 67 0 20 135 189 157 198 26 10 113 12 113 3 0 -3 -11
-20 -24 -37 -39 -52 -67 -115 -55 -122 6 -4 11 -5 12 -3 1 2 18 21 37 43 19
21 27 33 17 26 -33 -26 -28 -3 13 48 27 34 48 51 63 51 16 0 18 3 9 9 -11 7
-7 17 17 51 17 24 31 47 31 52 0 20 -23 4 -60 -43 -40 -51 -41 -51 -105 -55
l-66 -5 26 50 c27 55 32 90 13 109 -21 21 -80 13 -147 -18z"/>
<path d="M1229 398 c-23 -29 -48 -63 -56 -75 -9 -13 -25 -23 -37 -23 -15 0
-17 -3 -7 -9 10 -7 11 -13 1 -32 -17 -34 -71 -89 -87 -89 -16 0 -16 2 -3 34 6
15 6 28 0 31 -5 3 -7 19 -3 35 5 27 3 30 -20 30 -39 0 -127 -110 -127 -160 0
-22 32 -8 75 31 44 41 45 41 45 16 0 -37 17 -43 51 -18 l29 22 -6 -39 c-8 -52
12 -70 53 -47 25 14 13 13 -24 -2 -38 -15 -18 62 36 141 25 36 34 43 56 39 14
-3 25 -1 25 5 0 6 -9 12 -19 14 -17 3 -12 12 34 68 58 70 63 80 40 80 -8 0
-33 -24 -56 -52z m-213 -149 c-15 -35 -106 -119 -106 -98 0 27 104 146 118
134 1 -1 -4 -17 -12 -36z"/>
<path d="M1280 321 c0 -6 5 -13 10 -16 6 -3 10 1 10 9 0 9 -4 16 -10 16 -5 0
-10 -4 -10 -9z"/>
<path d="M491 255 c-59 -68 -61 -115 -4 -115 37 0 124 88 116 118 -3 12 -13
22 -22 22 -9 0 -25 3 -37 6 -15 4 -29 -4 -53 -31z m89 -9 c0 -26 -71 -96 -97
-96 -35 0 -1 65 52 100 39 26 45 25 45 -4z"/>
<path d="M2254 149 c-10 -17 13 -36 27 -22 12 12 4 33 -11 33 -5 0 -12 -5 -16
-11z"/>
</g>
</svg>
